<mxfile host="app.diagrams.net" modified="2024-05-13T13:42:33.820Z" agent="Mozilla/5.0 (Windows NT 10.0; Win64; x64) AppleWebKit/537.36 (KHTML, like Gecko) Chrome/124.0.0.0 Safari/537.36" etag="P_pjBTQ1m6_Tj3iUemTh" version="24.4.0" type="google" pages="3">
  <diagram name="employees" id="FE0xRuaj_MMjanyUnZmF">
    <mxGraphModel dx="2117" dy="1734" grid="1" gridSize="10" guides="1" tooltips="1" connect="1" arrows="1" fold="1" page="1" pageScale="1" pageWidth="827" pageHeight="1169" math="0" shadow="0">
      <root>
        <mxCell id="0" />
        <mxCell id="1" parent="0" />
        <mxCell id="1M4gTNyqV6GqQWMTYn1y-1" style="edgeStyle=none;curved=1;rounded=0;orthogonalLoop=1;jettySize=auto;html=1;exitX=0;exitY=1;exitDx=0;exitDy=0;fontSize=12;startSize=8;endSize=8;" edge="1" parent="1" source="1M4gTNyqV6GqQWMTYn1y-2" target="1M4gTNyqV6GqQWMTYn1y-4">
          <mxGeometry relative="1" as="geometry" />
        </mxCell>
        <mxCell id="1M4gTNyqV6GqQWMTYn1y-2" value="&lt;font style=&quot;font-size: 16px;&quot;&gt;employee 1&lt;/font&gt;" style="ellipse;whiteSpace=wrap;html=1;aspect=fixed;" vertex="1" parent="1">
          <mxGeometry x="154" y="15" width="80" height="80" as="geometry" />
        </mxCell>
        <mxCell id="1M4gTNyqV6GqQWMTYn1y-3" style="edgeStyle=none;curved=1;rounded=0;orthogonalLoop=1;jettySize=auto;html=1;exitX=0;exitY=1;exitDx=0;exitDy=0;fontSize=12;startSize=8;endSize=8;" edge="1" parent="1" source="1M4gTNyqV6GqQWMTYn1y-4" target="1M4gTNyqV6GqQWMTYn1y-18">
          <mxGeometry relative="1" as="geometry" />
        </mxCell>
        <mxCell id="1M4gTNyqV6GqQWMTYn1y-4" value="&lt;font style=&quot;font-size: 16px;&quot;&gt;employee 2&lt;/font&gt;" style="ellipse;whiteSpace=wrap;html=1;aspect=fixed;" vertex="1" parent="1">
          <mxGeometry x="39" y="-8" width="80" height="80" as="geometry" />
        </mxCell>
        <mxCell id="1M4gTNyqV6GqQWMTYn1y-5" style="edgeStyle=none;curved=1;rounded=0;orthogonalLoop=1;jettySize=auto;html=1;exitX=0.5;exitY=0;exitDx=0;exitDy=0;fontSize=12;startSize=8;endSize=8;" edge="1" parent="1" source="1M4gTNyqV6GqQWMTYn1y-7" target="1M4gTNyqV6GqQWMTYn1y-2">
          <mxGeometry relative="1" as="geometry" />
        </mxCell>
        <mxCell id="1M4gTNyqV6GqQWMTYn1y-6" style="edgeStyle=none;curved=1;rounded=0;orthogonalLoop=1;jettySize=auto;html=1;exitX=1;exitY=0.5;exitDx=0;exitDy=0;fontSize=12;startSize=8;endSize=8;" edge="1" parent="1" source="1M4gTNyqV6GqQWMTYn1y-7" target="1M4gTNyqV6GqQWMTYn1y-14">
          <mxGeometry relative="1" as="geometry" />
        </mxCell>
        <mxCell id="1M4gTNyqV6GqQWMTYn1y-7" value="&lt;font style=&quot;font-size: 16px;&quot;&gt;employee 3&lt;/font&gt;" style="ellipse;whiteSpace=wrap;html=1;aspect=fixed;" vertex="1" parent="1">
          <mxGeometry x="127" y="139" width="80" height="80" as="geometry" />
        </mxCell>
        <mxCell id="1M4gTNyqV6GqQWMTYn1y-8" style="edgeStyle=none;curved=1;rounded=0;orthogonalLoop=1;jettySize=auto;html=1;exitX=1;exitY=1;exitDx=0;exitDy=0;fontSize=12;startSize=8;endSize=8;" edge="1" parent="1" source="1M4gTNyqV6GqQWMTYn1y-9" target="1M4gTNyqV6GqQWMTYn1y-4">
          <mxGeometry relative="1" as="geometry" />
        </mxCell>
        <mxCell id="1M4gTNyqV6GqQWMTYn1y-9" value="&lt;font style=&quot;font-size: 16px;&quot;&gt;employee 4&lt;/font&gt;" style="ellipse;whiteSpace=wrap;html=1;aspect=fixed;" vertex="1" parent="1">
          <mxGeometry x="-60" y="40" width="80" height="80" as="geometry" />
        </mxCell>
        <mxCell id="1M4gTNyqV6GqQWMTYn1y-10" style="edgeStyle=none;curved=1;rounded=0;orthogonalLoop=1;jettySize=auto;html=1;exitX=0.413;exitY=0.02;exitDx=0;exitDy=0;entryX=0.5;entryY=1;entryDx=0;entryDy=0;fontSize=12;startSize=8;endSize=8;exitPerimeter=0;" edge="1" parent="1" source="1M4gTNyqV6GqQWMTYn1y-11" target="1M4gTNyqV6GqQWMTYn1y-9">
          <mxGeometry relative="1" as="geometry" />
        </mxCell>
        <mxCell id="1M4gTNyqV6GqQWMTYn1y-11" value="&lt;font style=&quot;font-size: 16px;&quot;&gt;employee 5&lt;/font&gt;" style="ellipse;whiteSpace=wrap;html=1;aspect=fixed;" vertex="1" parent="1">
          <mxGeometry x="-50" y="160" width="80" height="80" as="geometry" />
        </mxCell>
        <mxCell id="1M4gTNyqV6GqQWMTYn1y-12" style="edgeStyle=none;curved=1;rounded=0;orthogonalLoop=1;jettySize=auto;html=1;exitX=0;exitY=1;exitDx=0;exitDy=0;fontSize=12;startSize=8;endSize=8;" edge="1" parent="1" source="1M4gTNyqV6GqQWMTYn1y-14" target="1M4gTNyqV6GqQWMTYn1y-15">
          <mxGeometry relative="1" as="geometry" />
        </mxCell>
        <mxCell id="1M4gTNyqV6GqQWMTYn1y-13" style="edgeStyle=none;curved=1;rounded=0;orthogonalLoop=1;jettySize=auto;html=1;exitX=1;exitY=1;exitDx=0;exitDy=0;entryX=1;entryY=0;entryDx=0;entryDy=0;fontSize=12;startSize=8;endSize=8;" edge="1" parent="1" source="1M4gTNyqV6GqQWMTYn1y-14" target="1M4gTNyqV6GqQWMTYn1y-17">
          <mxGeometry relative="1" as="geometry" />
        </mxCell>
        <mxCell id="1M4gTNyqV6GqQWMTYn1y-14" value="&lt;font style=&quot;font-size: 16px;&quot;&gt;employee 6&lt;/font&gt;" style="ellipse;whiteSpace=wrap;html=1;aspect=fixed;" vertex="1" parent="1">
          <mxGeometry x="287" y="139" width="80" height="80" as="geometry" />
        </mxCell>
        <mxCell id="1M4gTNyqV6GqQWMTYn1y-15" value="&lt;font style=&quot;font-size: 16px;&quot;&gt;employee 7&lt;/font&gt;" style="ellipse;whiteSpace=wrap;html=1;aspect=fixed;" vertex="1" parent="1">
          <mxGeometry x="350" y="30" width="80" height="80" as="geometry" />
        </mxCell>
        <mxCell id="1M4gTNyqV6GqQWMTYn1y-16" style="edgeStyle=none;curved=1;rounded=0;orthogonalLoop=1;jettySize=auto;html=1;exitX=0.5;exitY=0;exitDx=0;exitDy=0;entryX=1;entryY=1;entryDx=0;entryDy=0;fontSize=12;startSize=8;endSize=8;" edge="1" parent="1" source="1M4gTNyqV6GqQWMTYn1y-17" target="1M4gTNyqV6GqQWMTYn1y-7">
          <mxGeometry relative="1" as="geometry" />
        </mxCell>
        <mxCell id="1M4gTNyqV6GqQWMTYn1y-17" value="&lt;font style=&quot;font-size: 16px;&quot;&gt;employee 8&lt;/font&gt;" style="ellipse;whiteSpace=wrap;html=1;aspect=fixed;" vertex="1" parent="1">
          <mxGeometry x="207" y="250" width="80" height="80" as="geometry" />
        </mxCell>
        <mxCell id="1M4gTNyqV6GqQWMTYn1y-18" value="&lt;font style=&quot;font-size: 16px;&quot;&gt;employee 9&lt;/font&gt;" style="ellipse;whiteSpace=wrap;html=1;aspect=fixed;" vertex="1" parent="1">
          <mxGeometry x="39" y="120" width="80" height="80" as="geometry" />
        </mxCell>
        <mxCell id="1M4gTNyqV6GqQWMTYn1y-19" style="edgeStyle=none;curved=1;rounded=0;orthogonalLoop=1;jettySize=auto;html=1;entryX=0.5;entryY=1;entryDx=0;entryDy=0;fontSize=12;startSize=8;endSize=8;exitX=0.075;exitY=0.375;exitDx=0;exitDy=0;exitPerimeter=0;" edge="1" parent="1" source="1M4gTNyqV6GqQWMTYn1y-20" target="1M4gTNyqV6GqQWMTYn1y-11">
          <mxGeometry relative="1" as="geometry">
            <mxPoint x="70" y="270" as="sourcePoint" />
          </mxGeometry>
        </mxCell>
        <mxCell id="1M4gTNyqV6GqQWMTYn1y-20" value="&lt;font style=&quot;font-size: 16px;&quot;&gt;employee 10&lt;/font&gt;" style="ellipse;whiteSpace=wrap;html=1;aspect=fixed;" vertex="1" parent="1">
          <mxGeometry x="30" y="250" width="80" height="80" as="geometry" />
        </mxCell>
      </root>
    </mxGraphModel>
  </diagram>
  <diagram id="Hiz9OLyL3iJabTnxUUzd" name="projects">
    <mxGraphModel dx="2957" dy="1413" grid="1" gridSize="10" guides="1" tooltips="1" connect="1" arrows="1" fold="1" page="1" pageScale="1" pageWidth="827" pageHeight="1169" math="0" shadow="0">
      <root>
        <mxCell id="0" />
        <mxCell id="1" parent="0" />
        <mxCell id="wBTNphcKf1xVO8U0O6G7-1" value="&lt;span style=&quot;font-size: 16px;&quot;&gt;project 1&lt;/span&gt;" style="ellipse;whiteSpace=wrap;html=1;aspect=fixed;" vertex="1" parent="1">
          <mxGeometry x="-680" y="512" width="80" height="80" as="geometry" />
        </mxCell>
        <mxCell id="wBTNphcKf1xVO8U0O6G7-2" value="&lt;span style=&quot;font-size: 16px;&quot;&gt;project 2&lt;/span&gt;" style="ellipse;whiteSpace=wrap;html=1;aspect=fixed;" vertex="1" parent="1">
          <mxGeometry x="-460" y="516" width="80" height="80" as="geometry" />
        </mxCell>
        <mxCell id="wBTNphcKf1xVO8U0O6G7-3" value="&lt;span style=&quot;font-size: 16px;&quot;&gt;project 3&lt;/span&gt;" style="ellipse;whiteSpace=wrap;html=1;aspect=fixed;" vertex="1" parent="1">
          <mxGeometry x="-287" y="523" width="80" height="80" as="geometry" />
        </mxCell>
        <mxCell id="wBTNphcKf1xVO8U0O6G7-4" value="&lt;span style=&quot;font-size: 16px;&quot;&gt;project 4&lt;/span&gt;" style="ellipse;whiteSpace=wrap;html=1;aspect=fixed;" vertex="1" parent="1">
          <mxGeometry x="31" y="527" width="80" height="80" as="geometry" />
        </mxCell>
        <mxCell id="wBTNphcKf1xVO8U0O6G7-5" value="&lt;span style=&quot;font-size: 16px;&quot;&gt;project 9&lt;/span&gt;" style="ellipse;whiteSpace=wrap;html=1;aspect=fixed;" vertex="1" parent="1">
          <mxGeometry x="-867" y="512" width="80" height="80" as="geometry" />
        </mxCell>
        <mxCell id="wBTNphcKf1xVO8U0O6G7-6" style="edgeStyle=none;curved=1;rounded=0;orthogonalLoop=1;jettySize=auto;html=1;exitX=0.5;exitY=0;exitDx=0;exitDy=0;entryX=0;entryY=1;entryDx=0;entryDy=0;fontSize=12;startSize=8;endSize=8;" edge="1" parent="1" source="wBTNphcKf1xVO8U0O6G7-8" target="wBTNphcKf1xVO8U0O6G7-1">
          <mxGeometry relative="1" as="geometry" />
        </mxCell>
        <mxCell id="wBTNphcKf1xVO8U0O6G7-7" style="edgeStyle=none;curved=1;rounded=0;orthogonalLoop=1;jettySize=auto;html=1;exitX=0.5;exitY=0;exitDx=0;exitDy=0;fontSize=12;startSize=8;endSize=8;" edge="1" parent="1" source="wBTNphcKf1xVO8U0O6G7-8" target="wBTNphcKf1xVO8U0O6G7-5">
          <mxGeometry relative="1" as="geometry" />
        </mxCell>
        <mxCell id="wBTNphcKf1xVO8U0O6G7-8" value="&lt;span style=&quot;font-size: 16px;&quot;&gt;employee 1&lt;/span&gt;" style="whiteSpace=wrap;html=1;aspect=fixed;" vertex="1" parent="1">
          <mxGeometry x="-794" y="663" width="80" height="80" as="geometry" />
        </mxCell>
        <mxCell id="wBTNphcKf1xVO8U0O6G7-9" style="edgeStyle=none;curved=1;rounded=0;orthogonalLoop=1;jettySize=auto;html=1;exitX=0.5;exitY=0;exitDx=0;exitDy=0;entryX=0.5;entryY=1;entryDx=0;entryDy=0;fontSize=12;startSize=8;endSize=8;" edge="1" parent="1" source="wBTNphcKf1xVO8U0O6G7-10" target="wBTNphcKf1xVO8U0O6G7-2">
          <mxGeometry relative="1" as="geometry" />
        </mxCell>
        <mxCell id="wBTNphcKf1xVO8U0O6G7-10" value="&lt;span style=&quot;font-size: 16px;&quot;&gt;employee 2&lt;/span&gt;" style="whiteSpace=wrap;html=1;aspect=fixed;" vertex="1" parent="1">
          <mxGeometry x="-460" y="663" width="80" height="80" as="geometry" />
        </mxCell>
        <mxCell id="wBTNphcKf1xVO8U0O6G7-11" style="edgeStyle=none;curved=1;rounded=0;orthogonalLoop=1;jettySize=auto;html=1;exitX=0.5;exitY=0;exitDx=0;exitDy=0;entryX=0;entryY=1;entryDx=0;entryDy=0;fontSize=12;startSize=8;endSize=8;" edge="1" parent="1" source="wBTNphcKf1xVO8U0O6G7-12" target="wBTNphcKf1xVO8U0O6G7-3">
          <mxGeometry relative="1" as="geometry" />
        </mxCell>
        <mxCell id="wBTNphcKf1xVO8U0O6G7-12" value="&lt;span style=&quot;font-size: 16px;&quot;&gt;employee 3&lt;/span&gt;" style="whiteSpace=wrap;html=1;aspect=fixed;" vertex="1" parent="1">
          <mxGeometry x="-360" y="663" width="80" height="80" as="geometry" />
        </mxCell>
        <mxCell id="wBTNphcKf1xVO8U0O6G7-13" style="edgeStyle=none;curved=1;rounded=0;orthogonalLoop=1;jettySize=auto;html=1;exitX=0.5;exitY=0;exitDx=0;exitDy=0;entryX=1;entryY=1;entryDx=0;entryDy=0;fontSize=12;startSize=8;endSize=8;" edge="1" parent="1" source="wBTNphcKf1xVO8U0O6G7-14" target="wBTNphcKf1xVO8U0O6G7-3">
          <mxGeometry relative="1" as="geometry" />
        </mxCell>
        <mxCell id="wBTNphcKf1xVO8U0O6G7-14" value="&lt;span style=&quot;font-size: 16px;&quot;&gt;employee 4&lt;/span&gt;" style="whiteSpace=wrap;html=1;aspect=fixed;" vertex="1" parent="1">
          <mxGeometry x="-226" y="663" width="80" height="80" as="geometry" />
        </mxCell>
        <mxCell id="wBTNphcKf1xVO8U0O6G7-15" style="edgeStyle=none;curved=1;rounded=0;orthogonalLoop=1;jettySize=auto;html=1;exitX=0.5;exitY=0;exitDx=0;exitDy=0;entryX=0.5;entryY=1;entryDx=0;entryDy=0;fontSize=12;startSize=8;endSize=8;" edge="1" parent="1" source="wBTNphcKf1xVO8U0O6G7-16" target="wBTNphcKf1xVO8U0O6G7-1">
          <mxGeometry relative="1" as="geometry" />
        </mxCell>
        <mxCell id="wBTNphcKf1xVO8U0O6G7-16" value="&lt;span style=&quot;font-size: 16px;&quot;&gt;employee 5&lt;/span&gt;" style="whiteSpace=wrap;html=1;aspect=fixed;" vertex="1" parent="1">
          <mxGeometry x="-680" y="663" width="80" height="80" as="geometry" />
        </mxCell>
        <mxCell id="wBTNphcKf1xVO8U0O6G7-17" style="edgeStyle=none;curved=1;rounded=0;orthogonalLoop=1;jettySize=auto;html=1;exitX=0.5;exitY=0;exitDx=0;exitDy=0;entryX=0.5;entryY=1;entryDx=0;entryDy=0;fontSize=12;startSize=8;endSize=8;" edge="1" parent="1" source="wBTNphcKf1xVO8U0O6G7-18" target="wBTNphcKf1xVO8U0O6G7-4">
          <mxGeometry relative="1" as="geometry" />
        </mxCell>
        <mxCell id="wBTNphcKf1xVO8U0O6G7-18" value="&lt;span style=&quot;font-size: 16px;&quot;&gt;employee 6&lt;/span&gt;" style="whiteSpace=wrap;html=1;aspect=fixed;" vertex="1" parent="1">
          <mxGeometry x="-110" y="663" width="80" height="80" as="geometry" />
        </mxCell>
        <mxCell id="wBTNphcKf1xVO8U0O6G7-19" style="edgeStyle=none;curved=1;rounded=0;orthogonalLoop=1;jettySize=auto;html=1;exitX=0.5;exitY=0;exitDx=0;exitDy=0;fontSize=12;startSize=8;endSize=8;" edge="1" parent="1" source="wBTNphcKf1xVO8U0O6G7-20" target="wBTNphcKf1xVO8U0O6G7-4">
          <mxGeometry relative="1" as="geometry" />
        </mxCell>
        <mxCell id="wBTNphcKf1xVO8U0O6G7-20" value="&lt;span style=&quot;font-size: 16px;&quot;&gt;employee 7&lt;/span&gt;" style="whiteSpace=wrap;html=1;aspect=fixed;" vertex="1" parent="1">
          <mxGeometry x="31" y="663" width="80" height="80" as="geometry" />
        </mxCell>
        <mxCell id="wBTNphcKf1xVO8U0O6G7-21" style="edgeStyle=none;curved=1;rounded=0;orthogonalLoop=1;jettySize=auto;html=1;exitX=0.5;exitY=0;exitDx=0;exitDy=0;entryX=1;entryY=1;entryDx=0;entryDy=0;fontSize=12;startSize=8;endSize=8;" edge="1" parent="1" source="wBTNphcKf1xVO8U0O6G7-22" target="wBTNphcKf1xVO8U0O6G7-1">
          <mxGeometry relative="1" as="geometry" />
        </mxCell>
        <mxCell id="wBTNphcKf1xVO8U0O6G7-22" value="&lt;span style=&quot;font-size: 16px;&quot;&gt;employee 8&lt;/span&gt;" style="whiteSpace=wrap;html=1;aspect=fixed;" vertex="1" parent="1">
          <mxGeometry x="-560" y="663" width="80" height="80" as="geometry" />
        </mxCell>
        <mxCell id="wBTNphcKf1xVO8U0O6G7-23" style="edgeStyle=none;curved=1;rounded=0;orthogonalLoop=1;jettySize=auto;html=1;exitX=0.5;exitY=0;exitDx=0;exitDy=0;entryX=0.5;entryY=1;entryDx=0;entryDy=0;fontSize=12;startSize=8;endSize=8;" edge="1" parent="1" source="wBTNphcKf1xVO8U0O6G7-24" target="wBTNphcKf1xVO8U0O6G7-4">
          <mxGeometry relative="1" as="geometry" />
        </mxCell>
        <mxCell id="wBTNphcKf1xVO8U0O6G7-24" value="&lt;span style=&quot;font-size: 16px;&quot;&gt;employee 9&lt;/span&gt;" style="whiteSpace=wrap;html=1;aspect=fixed;" vertex="1" parent="1">
          <mxGeometry x="170" y="663" width="80" height="80" as="geometry" />
        </mxCell>
        <mxCell id="wBTNphcKf1xVO8U0O6G7-25" style="edgeStyle=none;curved=1;rounded=0;orthogonalLoop=1;jettySize=auto;html=1;exitX=0.5;exitY=0;exitDx=0;exitDy=0;fontSize=12;startSize=8;endSize=8;" edge="1" parent="1" source="wBTNphcKf1xVO8U0O6G7-26" target="wBTNphcKf1xVO8U0O6G7-5">
          <mxGeometry relative="1" as="geometry" />
        </mxCell>
        <mxCell id="wBTNphcKf1xVO8U0O6G7-26" value="&lt;span style=&quot;font-size: 16px;&quot;&gt;employee 10&lt;/span&gt;" style="whiteSpace=wrap;html=1;aspect=fixed;" vertex="1" parent="1">
          <mxGeometry x="-949" y="663" width="80" height="80" as="geometry" />
        </mxCell>
      </root>
    </mxGraphModel>
  </diagram>
  <diagram id="TAxFpCVDtGXUCKlgHR-H" name="tasks">
    <mxGraphModel dx="3143" dy="1614" grid="1" gridSize="10" guides="1" tooltips="1" connect="1" arrows="1" fold="1" page="1" pageScale="1" pageWidth="827" pageHeight="1169" math="0" shadow="0">
      <root>
        <mxCell id="0" />
        <mxCell id="1" parent="0" />
        <mxCell id="w8Kc080vxZYxUZnqVYXe-1" value="&lt;span style=&quot;font-size: 16px;&quot;&gt;task 1&lt;/span&gt;" style="ellipse;whiteSpace=wrap;html=1;aspect=fixed;" vertex="1" parent="1">
          <mxGeometry x="-522" y="528" width="80" height="80" as="geometry" />
        </mxCell>
        <mxCell id="w8Kc080vxZYxUZnqVYXe-2" value="&lt;span style=&quot;font-size: 16px;&quot;&gt;task 6&lt;/span&gt;" style="ellipse;whiteSpace=wrap;html=1;aspect=fixed;" vertex="1" parent="1">
          <mxGeometry x="-1049" y="527" width="80" height="80" as="geometry" />
        </mxCell>
        <mxCell id="w8Kc080vxZYxUZnqVYXe-3" value="&lt;span style=&quot;font-size: 16px;&quot;&gt;task 3&lt;/span&gt;" style="ellipse;whiteSpace=wrap;html=1;aspect=fixed;" vertex="1" parent="1">
          <mxGeometry x="-638" y="531" width="80" height="80" as="geometry" />
        </mxCell>
        <mxCell id="w8Kc080vxZYxUZnqVYXe-4" value="&lt;span style=&quot;font-size: 16px;&quot;&gt;task 2&lt;/span&gt;" style="ellipse;whiteSpace=wrap;html=1;aspect=fixed;" vertex="1" parent="1">
          <mxGeometry x="-908" y="527" width="80" height="80" as="geometry" />
        </mxCell>
        <mxCell id="w8Kc080vxZYxUZnqVYXe-5" style="edgeStyle=none;curved=1;rounded=0;orthogonalLoop=1;jettySize=auto;html=1;exitX=0.5;exitY=0;exitDx=0;exitDy=0;entryX=0.5;entryY=1;entryDx=0;entryDy=0;fontSize=12;startSize=8;endSize=8;" edge="1" parent="1" source="w8Kc080vxZYxUZnqVYXe-6" target="w8Kc080vxZYxUZnqVYXe-24">
          <mxGeometry relative="1" as="geometry" />
        </mxCell>
        <mxCell id="w8Kc080vxZYxUZnqVYXe-6" value="&lt;span style=&quot;font-size: 16px;&quot;&gt;project 3&lt;/span&gt;" style="whiteSpace=wrap;html=1;aspect=fixed;" vertex="1" parent="1">
          <mxGeometry x="-756" y="667" width="80" height="80" as="geometry" />
        </mxCell>
        <mxCell id="w8Kc080vxZYxUZnqVYXe-7" style="edgeStyle=none;curved=1;rounded=0;orthogonalLoop=1;jettySize=auto;html=1;exitX=0.5;exitY=0;exitDx=0;exitDy=0;entryX=0.5;entryY=1;entryDx=0;entryDy=0;fontSize=12;startSize=8;endSize=8;" edge="1" parent="1" source="w8Kc080vxZYxUZnqVYXe-9" target="w8Kc080vxZYxUZnqVYXe-2">
          <mxGeometry relative="1" as="geometry" />
        </mxCell>
        <mxCell id="w8Kc080vxZYxUZnqVYXe-8" style="edgeStyle=none;curved=1;rounded=0;orthogonalLoop=1;jettySize=auto;html=1;exitX=0.5;exitY=0;exitDx=0;exitDy=0;entryX=0.5;entryY=1;entryDx=0;entryDy=0;fontSize=12;startSize=8;endSize=8;" edge="1" parent="1" source="w8Kc080vxZYxUZnqVYXe-9" target="w8Kc080vxZYxUZnqVYXe-26">
          <mxGeometry relative="1" as="geometry" />
        </mxCell>
        <mxCell id="w8Kc080vxZYxUZnqVYXe-9" value="&lt;span style=&quot;font-size: 16px;&quot;&gt;project 1&lt;/span&gt;" style="whiteSpace=wrap;html=1;aspect=fixed;" vertex="1" parent="1">
          <mxGeometry x="-1113" y="663" width="80" height="80" as="geometry" />
        </mxCell>
        <mxCell id="w8Kc080vxZYxUZnqVYXe-10" style="edgeStyle=none;curved=1;rounded=0;orthogonalLoop=1;jettySize=auto;html=1;exitX=0.5;exitY=0;exitDx=0;exitDy=0;entryX=0.5;entryY=1;entryDx=0;entryDy=0;fontSize=12;startSize=8;endSize=8;" edge="1" parent="1" source="w8Kc080vxZYxUZnqVYXe-11" target="w8Kc080vxZYxUZnqVYXe-25">
          <mxGeometry relative="1" as="geometry" />
        </mxCell>
        <mxCell id="w8Kc080vxZYxUZnqVYXe-11" value="&lt;span style=&quot;font-size: 16px;&quot;&gt;project 6&lt;/span&gt;" style="whiteSpace=wrap;html=1;aspect=fixed;" vertex="1" parent="1">
          <mxGeometry x="-1360" y="667" width="80" height="80" as="geometry" />
        </mxCell>
        <mxCell id="w8Kc080vxZYxUZnqVYXe-12" style="edgeStyle=none;curved=1;rounded=0;orthogonalLoop=1;jettySize=auto;html=1;exitX=0.5;exitY=0;exitDx=0;exitDy=0;entryX=1;entryY=1;entryDx=0;entryDy=0;fontSize=12;startSize=8;endSize=8;" edge="1" parent="1" source="w8Kc080vxZYxUZnqVYXe-13" target="w8Kc080vxZYxUZnqVYXe-4">
          <mxGeometry relative="1" as="geometry" />
        </mxCell>
        <mxCell id="w8Kc080vxZYxUZnqVYXe-13" value="&lt;span style=&quot;font-size: 16px;&quot;&gt;project 7&lt;/span&gt;" style="whiteSpace=wrap;html=1;aspect=fixed;" vertex="1" parent="1">
          <mxGeometry x="-852" y="667" width="80" height="80" as="geometry" />
        </mxCell>
        <mxCell id="w8Kc080vxZYxUZnqVYXe-14" style="edgeStyle=none;curved=1;rounded=0;orthogonalLoop=1;jettySize=auto;html=1;exitX=0.5;exitY=0;exitDx=0;exitDy=0;fontSize=12;startSize=8;endSize=8;" edge="1" parent="1" source="w8Kc080vxZYxUZnqVYXe-15" target="w8Kc080vxZYxUZnqVYXe-3">
          <mxGeometry relative="1" as="geometry" />
        </mxCell>
        <mxCell id="w8Kc080vxZYxUZnqVYXe-15" value="&lt;span style=&quot;font-size: 16px;&quot;&gt;project 4&lt;/span&gt;" style="whiteSpace=wrap;html=1;aspect=fixed;" vertex="1" parent="1">
          <mxGeometry x="-642" y="667" width="80" height="80" as="geometry" />
        </mxCell>
        <mxCell id="w8Kc080vxZYxUZnqVYXe-16" style="edgeStyle=none;curved=1;rounded=0;orthogonalLoop=1;jettySize=auto;html=1;exitX=0.5;exitY=0;exitDx=0;exitDy=0;entryX=0.5;entryY=1;entryDx=0;entryDy=0;fontSize=12;startSize=8;endSize=8;" edge="1" parent="1" source="w8Kc080vxZYxUZnqVYXe-17" target="w8Kc080vxZYxUZnqVYXe-27">
          <mxGeometry relative="1" as="geometry" />
        </mxCell>
        <mxCell id="w8Kc080vxZYxUZnqVYXe-17" value="&lt;span style=&quot;font-size: 16px;&quot;&gt;project 9&lt;/span&gt;" style="whiteSpace=wrap;html=1;aspect=fixed;" vertex="1" parent="1">
          <mxGeometry x="-410" y="666" width="80" height="80" as="geometry" />
        </mxCell>
        <mxCell id="w8Kc080vxZYxUZnqVYXe-18" style="edgeStyle=none;curved=1;rounded=0;orthogonalLoop=1;jettySize=auto;html=1;exitX=0.5;exitY=0;exitDx=0;exitDy=0;entryX=0.5;entryY=1;entryDx=0;entryDy=0;fontSize=12;startSize=8;endSize=8;" edge="1" parent="1" source="w8Kc080vxZYxUZnqVYXe-19" target="w8Kc080vxZYxUZnqVYXe-1">
          <mxGeometry relative="1" as="geometry" />
        </mxCell>
        <mxCell id="w8Kc080vxZYxUZnqVYXe-19" value="&lt;span style=&quot;font-size: 16px;&quot;&gt;project 5&lt;/span&gt;" style="whiteSpace=wrap;html=1;aspect=fixed;" vertex="1" parent="1">
          <mxGeometry x="-522" y="667" width="80" height="80" as="geometry" />
        </mxCell>
        <mxCell id="w8Kc080vxZYxUZnqVYXe-20" style="edgeStyle=none;curved=1;rounded=0;orthogonalLoop=1;jettySize=auto;html=1;exitX=0.5;exitY=0;exitDx=0;exitDy=0;entryX=0.5;entryY=1;entryDx=0;entryDy=0;fontSize=12;startSize=8;endSize=8;" edge="1" parent="1" source="w8Kc080vxZYxUZnqVYXe-21" target="w8Kc080vxZYxUZnqVYXe-26">
          <mxGeometry relative="1" as="geometry" />
        </mxCell>
        <mxCell id="w8Kc080vxZYxUZnqVYXe-21" value="&lt;span style=&quot;font-size: 16px;&quot;&gt;project 10&lt;/span&gt;" style="whiteSpace=wrap;html=1;aspect=fixed;" vertex="1" parent="1">
          <mxGeometry x="-1233" y="663" width="80" height="80" as="geometry" />
        </mxCell>
        <mxCell id="w8Kc080vxZYxUZnqVYXe-22" style="edgeStyle=none;curved=1;rounded=0;orthogonalLoop=1;jettySize=auto;html=1;exitX=0.5;exitY=0;exitDx=0;exitDy=0;fontSize=12;startSize=8;endSize=8;entryX=0;entryY=1;entryDx=0;entryDy=0;" edge="1" parent="1" source="w8Kc080vxZYxUZnqVYXe-23" target="w8Kc080vxZYxUZnqVYXe-4">
          <mxGeometry relative="1" as="geometry" />
        </mxCell>
        <mxCell id="w8Kc080vxZYxUZnqVYXe-23" value="&lt;span style=&quot;font-size: 16px;&quot;&gt;project 2&lt;/span&gt;" style="whiteSpace=wrap;html=1;aspect=fixed;" vertex="1" parent="1">
          <mxGeometry x="-963" y="669" width="80" height="80" as="geometry" />
        </mxCell>
        <mxCell id="w8Kc080vxZYxUZnqVYXe-24" value="&lt;span style=&quot;font-size: 16px;&quot;&gt;task 5&lt;/span&gt;" style="ellipse;whiteSpace=wrap;html=1;aspect=fixed;" vertex="1" parent="1">
          <mxGeometry x="-754" y="527" width="80" height="80" as="geometry" />
        </mxCell>
        <mxCell id="w8Kc080vxZYxUZnqVYXe-25" value="&lt;span style=&quot;font-size: 16px;&quot;&gt;task 4&lt;/span&gt;" style="ellipse;whiteSpace=wrap;html=1;aspect=fixed;" vertex="1" parent="1">
          <mxGeometry x="-1360" y="534" width="80" height="80" as="geometry" />
        </mxCell>
        <mxCell id="w8Kc080vxZYxUZnqVYXe-26" value="&lt;span style=&quot;font-size: 16px;&quot;&gt;task 9&lt;/span&gt;" style="ellipse;whiteSpace=wrap;html=1;aspect=fixed;" vertex="1" parent="1">
          <mxGeometry x="-1183" y="534" width="80" height="80" as="geometry" />
        </mxCell>
        <mxCell id="w8Kc080vxZYxUZnqVYXe-27" value="&lt;span style=&quot;font-size: 16px;&quot;&gt;task 8&lt;/span&gt;" style="ellipse;whiteSpace=wrap;html=1;aspect=fixed;" vertex="1" parent="1">
          <mxGeometry x="-410" y="527" width="80" height="80" as="geometry" />
        </mxCell>
        <mxCell id="w8Kc080vxZYxUZnqVYXe-28" style="edgeStyle=none;curved=1;rounded=0;orthogonalLoop=1;jettySize=auto;html=1;exitX=0.5;exitY=0;exitDx=0;exitDy=0;entryX=0.5;entryY=1;entryDx=0;entryDy=0;fontSize=12;startSize=8;endSize=8;" edge="1" parent="1" source="w8Kc080vxZYxUZnqVYXe-29" target="w8Kc080vxZYxUZnqVYXe-30">
          <mxGeometry relative="1" as="geometry" />
        </mxCell>
        <mxCell id="w8Kc080vxZYxUZnqVYXe-29" value="&lt;span style=&quot;font-size: 16px;&quot;&gt;project 8&lt;/span&gt;" style="whiteSpace=wrap;html=1;aspect=fixed;" vertex="1" parent="1">
          <mxGeometry x="-261" y="666" width="80" height="80" as="geometry" />
        </mxCell>
        <mxCell id="w8Kc080vxZYxUZnqVYXe-30" value="&lt;span style=&quot;font-size: 16px;&quot;&gt;task 7&lt;/span&gt;" style="ellipse;whiteSpace=wrap;html=1;aspect=fixed;" vertex="1" parent="1">
          <mxGeometry x="-261" y="528" width="80" height="80" as="geometry" />
        </mxCell>
      </root>
    </mxGraphModel>
  </diagram>
</mxfile>
